<?xml version="1.0" encoding="utf-8"?>
<!-- Generator: Adobe Illustrator 16.0.0, SVG Export Plug-In . SVG Version: 6.00 Build 0)  -->
<!DOCTYPE svg PUBLIC "-//W3C//DTD SVG 1.1//EN" "http://www.w3.org/Graphics/SVG/1.1/DTD/svg11.dtd">
<svg version="1.1" id="Layer_1" xmlns="http://www.w3.org/2000/svg" xmlns:xlink="http://www.w3.org/1999/xlink" x="0px" y="0px"
	 width="120px" height="120px" viewBox="220 220 120 120" enable-background="new 220 220 120 120" xml:space="preserve">
<g>
	<path fill="#BEBEBE" d="M250.919,325.498c4.786-3.441,10.479-5.607,17.081-6.498c2.667,2,6.667,3,12,3s9.333-1,12-3
		c6.602,0.891,12.295,3.057,17.08,6.498C300.685,330.879,290.704,334,280,334S259.315,330.879,250.919,325.498z"/>
	<path fill="#D6D6D6" d="M268,319l2.76-8.625c-8.668-5.205-14.76-17.51-14.76-31.862c0-7.541,1.683-14.518,4.536-20.196
		c3.465,1.067,7.567,1.683,11.964,1.683c10.951,0,20.074-3.827,22.087-8.896c5.723,6.308,9.413,16.239,9.413,27.409
		c0,14.352-6.092,26.657-14.76,31.862L292,319c-2.667,2-6.667,3-12,3c-5.292,0-9.271-0.984-11.937-2.953L268,319z"/>
	<path fill="#A6A6A6" d="M258.585,294.111C253.274,288.158,250,280,250,271C250,252.775,263.432,238,280,238s30,14.774,30,32.999
		c0,9-3.274,17.159-8.585,23.112c1.653-4.686,2.585-9.984,2.585-15.598c0-11.17-3.69-21.101-9.413-27.409
		C292.574,256.173,283.451,260,272.5,260c-4.396,0-8.499-0.616-11.964-1.683c-2.854,5.678-4.536,12.655-4.536,20.196
		C256,284.127,256.932,289.426,258.585,294.111z"/>
	<path fill="#D6D6D6" d="M280,334c29.823,0,54-24.176,54-54C334,250.177,309.823,226,280,226S226,250.177,226,280
		C226,309.824,250.177,334,280,334z M280,340c-33.138,0-60-26.863-60-60C220,246.863,246.862,220,280,220
		c33.137,0,60,26.863,60,59.999C340,313.137,313.137,340,280,340z"/>
</g>
</svg>
