<?xml version="1.0" encoding="utf-8"?>
<!-- Generator: Adobe Illustrator 16.0.0, SVG Export Plug-In . SVG Version: 6.00 Build 0)  -->
<!DOCTYPE svg PUBLIC "-//W3C//DTD SVG 1.1//EN" "http://www.w3.org/Graphics/SVG/1.1/DTD/svg11.dtd">
<svg version="1.1" id="Layer_1" xmlns="http://www.w3.org/2000/svg" xmlns:xlink="http://www.w3.org/1999/xlink" x="0px" y="0px"
	 width="298.961px" height="300px" viewBox="0 0 298.961 300" enable-background="new 0 0 298.961 300" xml:space="preserve">
<g>
	<path fill="#7B7B7B" d="M172.694,209.707c-5.727,5.883-13.728,9.543-22.566,9.543c-7.608,0-14.983-2.794-20.688-7.756l-4.445,2.752
		c-1.521,3.412-2.368,7.19-2.368,11.17c0,15.188,12.313,27.5,27.5,27.5c10.872,0,20.271-6.311,24.729-15.467l39.463,5.727
		c0.229,14.99,12.443,27.074,27.49,27.074c15.188,0,27.5-12.313,27.5-27.5s-12.312-27.5-27.498-27.5
		c-10.936,0-20.375,6.382-24.81,15.623l-39.383-5.715C177.564,219.416,175.752,214.094,172.694,209.707 M170.163,206.586
		c-5.017,5.334-12.138,8.664-20.036,8.664c0.001,0,0.001,0,0.001,0C158.026,215.25,165.147,211.92,170.163,206.586L170.163,206.586
		 M122.63,187.586c0,0.055,0,0.109,0,0.164c0,2.704,0.396,5.314,1.125,7.783l-7.022,4.348h0l7.022-4.348
		c-0.729-2.469-1.125-5.079-1.125-7.783C122.631,187.695,122.631,187.641,122.63,187.586L122.63,187.586 M57.143,95.25
		c-15.187,0-27.5,12.312-27.5,27.5s12.313,27.5,27.5,27.5c4.676,0,9.078-1.171,12.937-3.23l43.967,49.817l5.141-3.183
		c-0.373-1.945-0.561-3.922-0.561-5.904c0-1.479,0.103-2.936,0.301-4.36l-39.412-44.659c3.227-4.505,5.127-10.02,5.127-15.981
		C84.643,107.562,72.33,95.25,57.143,95.25"/>
	<path fill="#7B7B7B" d="M241.811,29.75c-15.188,0-27.5,12.312-27.5,27.5c0,7.48,2.989,14.258,7.836,19.216l-60.939,86.113
		c0,0,0-0.001-0.001-0.001v0.001c-0.251-0.11-0.505-0.218-0.76-0.321c-2.423-0.981-5.015-1.631-7.72-1.886
		c-0.854-0.081-1.721-0.122-2.596-0.122c-15.133,0-27.411,12.225-27.5,27.336c0,0.055,0,0.109,0,0.164
		c0,2.704,0.396,5.314,1.125,7.783l-7.022,4.348l-39.283,24.32l0,0h-0.001c-5.032-5.5-12.265-8.951-20.303-8.951
		c-15.187,0-27.499,12.313-27.499,27.5s12.313,27.5,27.499,27.5c15.187,0,27.499-12.313,27.499-27.5c0-2.627-0.375-5.165-1.063-7.57
		l46.397-28.724c5.021,5.407,12.188,8.794,20.149,8.794c7.897,0,15.019-3.33,20.035-8.664c4.628-4.921,7.464-11.547,7.464-18.836
		c0-3.242-0.561-6.354-1.592-9.242c-0.762-2.133-1.779-4.145-3.016-5.998c-0.549-0.822-1.143-1.613-1.774-2.371l61.517-86.92
		c2.838,0.988,5.881,1.532,9.053,1.532c15.188,0,27.5-12.312,27.5-27.5S256.997,29.75,241.811,29.75"/>
	<path opacity="0" d="M161.206,162.579l60.938-86.113c-4.846-4.958-7.836-11.736-7.836-19.216c0.002-15.188,12.313-27.5,27.502-27.5
		s27.504,12.313,27.504,27.501l0,0l0,0c0,15.188-12.312,27.5-27.5,27.5c-3.172,0-6.215-0.544-9.053-1.532l0,0l-61.516,86.92
		c0.632,0.758,1.225,1.549,1.773,2.371c1.236,1.854,2.254,3.865,3.016,5.998c1.031,2.889,1.593,6,1.593,9.242
		c0,7.289-2.836,13.916-7.465,18.837c-5.016,5.333-12.137,8.663-20.035,8.663l0,0c-0.001,0-0.001,0-0.001,0
		c-7.96,0-15.127-3.387-20.148-8.794L83.583,235.18c0.688,2.405,1.063,4.943,1.063,7.57c0,15.188-12.312,27.5-27.5,27.5l0,0
		c-0.001,0-0.001,0-0.001,0c-15.188,0-27.5-12.313-27.5-27.5s12.313-27.5,27.5-27.5c0,0,0,0,0.001,0c0.001,0,0.001,0,0.001,0
		c8.039,0,15.275,3.451,20.303,8.951l39.283-24.32l7.022-4.348c-0.729-2.469-1.125-5.079-1.125-7.783c0-0.055,0-0.109,0-0.164
		c0.088-15.113,12.367-27.336,27.5-27.336c0.001,0,0,0,0.001,0l0,0c0.875,0,1.741,0.041,2.596,0.122
		c2.706,0.255,5.299,0.904,7.72,1.886C160.701,162.361,160.955,162.469,161.206,162.579 M241.811,25.75
		c-17.369,0-31.5,14.131-31.5,31.5c0,7.142,2.375,13.943,6.748,19.48l-57.334,81.014c-3.094-0.992-6.31-1.494-9.598-1.494
		c-15.89,0-29.07,11.826-31.199,27.14c-0.198,1.425-0.301,2.882-0.301,4.36c0,1.982,0.188,3.959,0.561,5.904l-5.141,3.183
		L78.005,219.15c-5.728-5.059-13.161-7.9-20.858-7.9c-17.369,0-31.5,14.131-31.5,31.5s14.131,31.5,31.5,31.5s31.5-14.131,31.5-31.5
		c0-1.906-0.174-3.809-0.519-5.682l36.867-22.822l4.445-2.752c5.705,4.962,13.08,7.756,20.688,7.756
		c8.839,0,16.84-3.66,22.566-9.543c5.525-5.678,8.934-13.428,8.934-21.957c0-6.316-1.912-12.488-5.433-17.682l58.181-82.208
		c2.433,0.591,4.922,0.89,7.438,0.89c17.369,0,31.5-14.131,31.5-31.5C273.313,39.881,259.182,25.75,241.811,25.75"/>
	<path fill="#7B7B7B" d="M57.147,215.25L57.147,215.25c8.038,0,15.271,3.451,20.302,8.951l0,0
		C72.422,218.701,65.186,215.25,57.147,215.25 M129.979,206.456L83.582,235.18c0.688,2.405,1.063,4.943,1.063,7.57
		c0,15.188-12.312,27.5-27.5,27.5c0.001,0,0.001,0,0.001,0c15.188,0,27.5-12.313,27.5-27.5c0-2.627-0.375-5.165-1.063-7.57
		L129.979,206.456c5.021,5.407,12.188,8.794,20.148,8.794l0,0C142.167,215.25,135,211.863,129.979,206.456 M173.02,172.51
		c1.236,1.854,2.254,3.865,3.016,5.998C175.273,176.375,174.256,174.363,173.02,172.51 M160.446,162.258
		c0.255,0.104,0.509,0.211,0.76,0.321l0,0C160.955,162.469,160.701,162.361,160.446,162.258 M150.131,160.25L150.131,160.25
		c0.875,0,1.741,0.041,2.596,0.122C151.872,160.291,151.006,160.25,150.131,160.25 M269.314,57.251c0,15.188-12.313,27.5-27.5,27.5
		c-3.172,0-6.215-0.544-9.053-1.532l0,0c2.838,0.988,5.881,1.532,9.053,1.532C257.003,84.751,269.314,72.439,269.314,57.251
		L269.314,57.251"/>
</g>
</svg>
