<?xml version="1.0" encoding="utf-8"?>
<!-- Generator: Adobe Illustrator 16.0.0, SVG Export Plug-In . SVG Version: 6.00 Build 0)  -->
<!DOCTYPE svg PUBLIC "-//W3C//DTD SVG 1.1//EN" "http://www.w3.org/Graphics/SVG/1.1/DTD/svg11.dtd">
<svg version="1.1" id="Layer_1" xmlns="http://www.w3.org/2000/svg" xmlns:xlink="http://www.w3.org/1999/xlink" x="0px" y="0px"
	 width="298.961px" height="300px" viewBox="0 0 298.961 300" enable-background="new 0 0 298.961 300" xml:space="preserve">
<g>
	<path fill="#E44A49" d="M149.604,39.766c-66.141,0-119.96,53.82-119.96,119.961c0,42.148,22.047,79.109,54.469,100.508
		c1.945-1.297,3.891-2.594,5.836-3.89c1.297-0.649,3.242-1.946,4.539-2.595c1.945-0.647,3.891-1.945,5.188-2.594
		c1.945-0.648,3.891-1.297,5.836-2.594c1.296-0.649,3.242-1.297,4.539-1.945c1.946-0.649,4.54-1.297,6.485-1.946
		c1.946-0.647,3.242-0.647,5.188-1.296c1.945-0.649,3.242-0.649,5.188-1.297c1.945-0.649,3.891-0.649,5.835-0.649l0,0
		c1.946,0,4.54-0.647,6.485-0.647l0,0V233v-6.484V199.93v-6.484v-23.992h-6.485v-12.969h6.485h19.454h6.484V191.5v7.133v27.234
		v6.484v9.727c18.155,2.593,34.367,9.078,49.28,18.156l0,0c33.07-21.398,54.469-58.359,54.469-100.508
		C269.565,93.585,215.745,39.766,149.604,39.766L149.604,39.766z M185.269,159.727c0-19.453-16.211-35.664-35.665-35.664
		c-19.453,0-35.664,16.211-35.664,35.664c0,13.617,7.781,25.938,19.453,31.773v7.133c-14.914-6.484-25.938-21.398-25.938-38.906
		c0-23.344,18.805-42.148,42.148-42.148c23.344,0,42.149,18.805,42.149,42.148c0,14.914-7.781,27.883-19.453,35.664v-7.781
		C180.081,180.477,185.269,170.75,185.269,159.727L185.269,159.727z M172.3,230.406v-7.133
		c26.586-9.077,45.391-34.367,45.391-64.194c0-36.962-30.478-67.438-68.086-67.438s-68.085,30.477-68.085,68.086
		c0,31.773,22.047,59.008,51.875,66.141v6.484c-33.07-7.133-58.359-36.961-58.359-72.625c0-41.5,33.07-74.57,74.57-74.57
		c41.5,0,74.571,33.07,74.571,74.57C224.175,192.796,202.128,221.328,172.3,230.406L172.3,230.406z"/>
</g>
</svg>
