<?xml version="1.0" encoding="utf-8"?>
<!-- Generator: Adobe Illustrator 16.0.0, SVG Export Plug-In . SVG Version: 6.00 Build 0)  -->
<!DOCTYPE svg PUBLIC "-//W3C//DTD SVG 1.1//EN" "http://www.w3.org/Graphics/SVG/1.1/DTD/svg11.dtd">
<svg version="1.1" id="Layer_1" xmlns="http://www.w3.org/2000/svg" xmlns:xlink="http://www.w3.org/1999/xlink" x="0px" y="0px"
	 width="298.961px" height="300px" viewBox="0 0 298.961 300" enable-background="new 0 0 298.961 300" xml:space="preserve">
<g id="g27" transform="translate(50,76)">
	
		<linearGradient id="path21_1_" gradientUnits="userSpaceOnUse" x1="-70.4028" y1="156.4063" x2="51.0387" y2="156.4063" gradientTransform="matrix(0.9831 0 0 -1.0172 46.515 233.0968)">
		<stop  offset="0" style="stop-color:#00D2E6"/>
		<stop  offset="1" style="stop-color:#2ECCAA"/>
	</linearGradient>
	<path id="path21" inkscape:connector-curvature="0" fill="url(#path21_1_)" d="M133.846,120.753
		c-3.563-0.018-7.116-0.743-10.463-2.201c-7.542-3.286-14.185-9.491-19.585-17.888c1.539-2.739,2.928-5.575,4.168-8.457
		c5.436-12.641,8.021-26.481,8.22-40.22c-0.029-0.273-0.052-0.547-0.068-0.821l-0.016-0.705c-0.012-5.387-0.832-10.846-2.686-15.929
		c-2.136-5.857-5.538-11.718-10.939-14.003c-0.981-0.415-2.014-0.589-3.041-0.564c-6.793-12.697-7.009-24.863,0-36.449
		c0.124,0,0.255,0,0.38,0.001c8.27,0.091,16.462,2.644,23.472,7.101c19.09,12.136,28.607,35.787,28.816,59.008
		c0.003,0.271-0.001,0.544-0.009,0.815h0.107C152.174,74.98,146.273,99.867,133.846,120.753L133.846,120.753z M91.521,159.273
		c-17.829,7.333-38.536,6.938-56.208-1.266c-20.332-9.436-35.867-27.779-45.434-48.717c-16.366-35.813-16.741-78.625-1.22-114.986
		C0.315-1.032,10.68-8.459,10.68-8.459S10.656,2.969,21.721,8.699c-11.354,26.602-11.08,58.204,0.298,84.126
		c5.478,12.473,13.845,24.088,25.444,30.655c4.14,2.344,8.688,3.856,13.368,4.425c0.018,0.028,0.035,0.056,0.053,0.082
		C69.146,140.882,79.556,151.626,91.521,159.273z"/>
	
		<linearGradient id="path23_1_" gradientUnits="userSpaceOnUse" x1="-27.3789" y1="26.1992" x2="35.2779" y2="55.7223" gradientTransform="matrix(1.1631 0 0 -0.8598 83.5939 159.0357)">
		<stop  offset="0" style="stop-color:#000000;stop-opacity:0"/>
		<stop  offset="0.5141" style="stop-color:#000000"/>
		<stop  offset="1" style="stop-color:#000000;stop-opacity:0"/>
	</linearGradient>
	<path id="path23" inkscape:connector-curvature="0" opacity="0.3" fill="url(#path23_1_)" enable-background="new    " d="
		M133.842,120.762c-3.564-0.019-7.113-0.744-10.459-2.203c-7.544-3.285-14.186-9.492-19.588-17.891
		c1.54-2.739,2.931-5.577,4.171-8.461c1.639-3.812,3.019-7.73,4.151-11.725c2.626-9.252,37.491,2.49,32.173,17.734
		C141.546,106.081,138.071,113.652,133.842,120.762L133.842,120.762z M91.512,159.277c-17.827,7.329-38.53,6.935-56.199-1.27
		c-20.332-9.437,0.552-41.095,12.15-34.527c4.138,2.342,8.685,3.855,13.361,4.425c0.02,0.03,0.039,0.06,0.059,0.091
		C69.145,140.887,79.551,151.631,91.512,159.277L91.512,159.277z"/>
	
		<linearGradient id="path25_1_" gradientUnits="userSpaceOnUse" x1="178.1563" y1="156.4063" x2="56.9208" y2="156.4062" gradientTransform="matrix(0.9831 0 0 -1.0172 46.515 233.0968)">
		<stop  offset="0" style="stop-color:#1FA385"/>
		<stop  offset="1" style="stop-color:#2ECCAA"/>
	</linearGradient>
	<path id="path25" inkscape:connector-curvature="0" fill="url(#path25_1_)" d="M46.867,50.44c-0.007-0.271-0.012-0.545-0.008-0.815
		c0.209-23.221,9.728-46.872,28.816-59.008c7.011-4.457,15.203-7.009,23.473-7.101c0.123,0,0.254-0.001,0.378-0.001v36.449
		c-1.026-0.024-2.059,0.15-3.041,0.564c-5.4,2.286-8.804,8.146-10.938,14.003c-1.854,5.083-2.674,10.542-2.686,15.929l-0.016,0.705
		c-0.017,0.274-0.039,0.548-0.067,0.82c0.198,13.739,2.783,27.58,8.219,40.221c6.088,14.156,15.765,27.178,29.428,33.131
		c10.306,4.491,21.732,3.432,31.074-1.857c11.6-6.567,19.966-18.183,25.444-30.655c11.379-25.922,11.651-57.524,0.298-84.126
		c11.066-5.73,11.042-17.158,11.042-17.158s10.363,7.427,22.021,2.764c15.52,36.362,15.146,79.174-1.219,114.986
		c-9.568,20.938-25.104,39.281-45.435,48.717c-18.099,8.403-39.381,8.613-57.493,0.721c-16.277-7.093-29.516-19.875-39.041-34.737
		C53.322,102.468,46.79,76.263,46.761,50.44H46.867z"/>
</g>
</svg>
