<?xml version="1.0" encoding="utf-8"?>
<!-- Generator: Adobe Illustrator 16.0.0, SVG Export Plug-In . SVG Version: 6.00 Build 0)  -->
<!DOCTYPE svg PUBLIC "-//W3C//DTD SVG 1.1//EN" "http://www.w3.org/Graphics/SVG/1.1/DTD/svg11.dtd">
<svg version="1.1" id="Layer_1" xmlns="http://www.w3.org/2000/svg" xmlns:xlink="http://www.w3.org/1999/xlink" x="0px" y="0px"
	 width="483.904px" height="409.539px" viewBox="0 0 483.904 409.539" enable-background="new 0 0 483.904 409.539"
	 xml:space="preserve">
<g>
	<g>
		<path fill="none" d="M-24.988,432.828c0-151.979,0-303.962,0-456.118c177.822,0,355.688,0,533.881,0
			c0,151.922,0,304.022,0,456.118C331.017,432.828,153.036,432.828-24.988,432.828z M395.117,226.814c-110.652,0-220.39,0-329.874,0
			c0,18.869,0,36.225,0,54.729c110.291,0,219.734,0,329.824,0c0,6.857-0.271,12.563,0.059,18.23
			c0.659,11.344,8.853,15.959,18.112,9.461c22.087-15.5,43.823-31.504,65.474-47.611c7.678-5.715,7.621-10.631-0.234-16.467
			c-21.352-15.863-42.87-31.508-64.563-46.903c-9.542-6.772-17.488-2.864-18.691,8.977
			C394.615,213.201,395.117,219.289,395.117,226.814z M64.799,379.984c74.536,0,148.057,0,222.423,0
			c0,6.463-0.617,11.836,0.191,16.979c0.662,4.211,2.171,10.746,4.826,11.623c4.33,1.426,10.994,0.66,14.771-1.943
			c21.297-14.688,42.098-30.1,62.911-45.475c8.887-6.563,8.992-11.502,0.232-18c-20.776-15.42-41.646-30.727-62.83-45.58
			c-3.568-2.502-10.381-4.832-13.029-3.117c-3.676,2.377-5.784,8.447-6.811,13.309c-1.125,5.336-0.257,11.09-0.257,17.756
			c-75.009,0-148.525,0-222.43,0C64.799,343.801,64.799,360.906,64.799,379.984z M64.633,86.635c49.453,0,97.705,0,146.88,0
			c0,6.838-0.232,12.506,0.049,18.147c0.585,11.758,9.078,16.246,18.887,9.342c21.768-15.315,43.232-31.063,64.625-46.901
			c8.01-5.933,7.994-11.301-0.135-17.342c-21.053-15.65-42.257-31.104-63.625-46.319c-10.734-7.647-18.836-3.478-19.734,9.846
			c-0.377,5.611-0.063,11.27-0.063,18.432c-49.546,0-98.1,0-146.885,0C64.633,50.471,64.633,67.568,64.633,86.635z M122.008,184.944
			c0,6.938-0.606,12.297,0.19,17.438c0.649,4.199,2.088,10.689,4.753,11.611c4.316,1.496,11.054,0.904,14.8-1.674
			c21.612-14.857,42.736-30.435,63.834-46.026c8.48-6.265,8.471-11.812-0.159-18.227c-21.054-15.647-42.241-31.123-63.625-46.315
			c-10.656-7.57-18.899-3.211-19.724,10.07c-0.365,5.875-0.062,11.793-0.062,18.885c-20.45,0-38.938,0-57.202,0
			c0,18.619,0,35.973,0,54.238C83.756,184.944,101.934,184.944,122.008,184.944z M0.515,85.422c17.568,0,33.699,0,49.59,0
			c0-18.261,0-35.578,0-53.046c-16.925,0-33.07,0-49.59,0C0.515,50.402,0.515,67.723,0.515,85.422z M0.672,130.731
			c0,18.556,0,35.876,0,53.543c16.862,0,33,0,49.278,0c0-18.274,0-35.853,0-53.543C33.162,130.731,17.303,130.731,0.672,130.731z
			 M50.476,227.99c-17.484,0-33.644,0-49.668,0c0,17.834,0,34.781,0,51.779c17.017,0,33.178,0,49.668,0
			C50.476,262.166,50.476,245.451,50.476,227.99z M50.3,326.084c-17.01,0-33.43,0-49.552,0c0,18.244,0,35.566,0,53.021
			c16.944,0,33.084,0,49.552,0C50.3,361.035,50.3,343.713,50.3,326.084z"/>
		<path fill="#EEEEEE" d="M395.117,226.814c0-7.525-0.504-13.613,0.104-19.586c1.203-11.839,9.149-15.75,18.691-8.977
			c21.69,15.397,43.211,31.04,64.563,46.903c7.855,5.836,7.912,10.752,0.234,16.467c-21.648,16.107-43.388,32.111-65.475,47.611
			c-9.261,6.498-17.452,1.883-18.111-9.461c-0.329-5.67-0.059-11.373-0.059-18.23c-110.09,0-219.533,0-329.824,0
			c0-18.504,0-35.857,0-54.729C174.729,226.814,284.465,226.814,395.117,226.814z"/>
		<path fill="#EEEEEE" d="M64.799,379.984c0-19.078,0-36.186,0-54.449c73.904,0,147.42,0,222.43,0c0-6.666-0.868-12.42,0.257-17.756
			c1.024-4.859,3.135-10.932,6.811-13.309c2.648-1.715,9.461,0.615,13.029,3.117c21.184,14.855,42.054,30.16,62.83,45.58
			c8.76,6.498,8.652,11.438-0.232,18c-20.813,15.375-41.614,30.787-62.911,45.475c-3.774,2.604-10.438,3.369-14.771,1.943
			c-2.655-0.877-4.164-7.412-4.826-11.623c-0.811-5.145-0.191-10.518-0.191-16.979C212.855,379.984,139.335,379.984,64.799,379.984z
			"/>
		<path fill="#EEEEEE" d="M64.633,86.635c0-19.067,0-36.164,0-54.795c48.785,0,97.339,0,146.885,0c0-7.162-0.315-12.82,0.063-18.432
			c0.897-13.323,8.998-17.493,19.733-9.846c21.368,15.215,42.572,30.668,63.625,46.319c8.13,6.041,8.145,11.41,0.134,17.342
			c-21.392,15.838-42.855,31.586-64.623,46.901c-9.811,6.904-18.303,2.417-18.888-9.342c-0.28-5.644-0.049-11.31-0.049-18.147
			C162.338,86.635,114.086,86.635,64.633,86.635z"/>
		<path fill="#EEEEEE" d="M122.008,184.944c-20.074,0-38.252,0-57.192,0c0-18.266,0-35.619,0-54.238c18.264,0,36.752,0,57.202,0
			c0-7.092-0.303-13.01,0.062-18.885c0.825-13.281,9.067-17.641,19.724-10.07c21.383,15.193,42.57,30.668,63.625,46.315
			c8.63,6.416,8.641,11.962,0.159,18.227c-21.099,15.591-42.222,31.169-63.834,46.026c-3.746,2.578-10.484,3.17-14.8,1.674
			c-2.666-0.924-4.104-7.412-4.753-11.611C121.402,197.242,122.008,191.882,122.008,184.944z"/>
		<path fill="#EEEEEE" d="M0.515,85.422c0-17.699,0-35.021,0-53.046c16.52,0,32.665,0,49.59,0c0,17.468,0,34.786,0,53.046
			C34.214,85.422,18.084,85.422,0.515,85.422z"/>
		<path fill="#EEEEEE" d="M0.672,130.731c16.63,0,32.49,0,49.278,0c0,17.691,0,35.27,0,53.543c-16.278,0-32.416,0-49.278,0
			C0.672,166.607,0.672,149.287,0.672,130.731z"/>
		<path fill="#EBB000" d="M50.476,227.99c0,17.461,0,34.176,0,51.779c-16.49,0-32.652,0-49.668,0c0-16.998,0-33.945,0-51.779
			C16.832,227.99,32.991,227.99,50.476,227.99z"/>
		<path fill="#EEEEEE" d="M50.3,326.084c0,17.629,0,34.951,0,53.021c-16.468,0-32.608,0-49.552,0c0-17.455,0-34.777,0-53.021
			C16.87,326.084,33.29,326.084,50.3,326.084z"/>
	</g>
</g>
</svg>
