<?xml version="1.0" encoding="utf-8"?>
<!-- Generator: Adobe Illustrator 16.0.0, SVG Export Plug-In . SVG Version: 6.00 Build 0)  -->
<!DOCTYPE svg PUBLIC "-//W3C//DTD SVG 1.1//EN" "http://www.w3.org/Graphics/SVG/1.1/DTD/svg11.dtd">
<svg version="1.1" id="Layer_1" xmlns="http://www.w3.org/2000/svg" xmlns:xlink="http://www.w3.org/1999/xlink" x="0px" y="0px"
	 width="64px" height="64px" viewBox="0 0 64 64" enable-background="new 0 0 64 64" xml:space="preserve">
<title>chrome</title>
<path fill="#FFFFFF" d="M46.729,40.91c-1.473,0.001-2.666-1.191-2.666-2.664c-0.001-1.472,1.193-2.666,2.664-2.666
	c1.473,0,2.666,1.193,2.666,2.664C49.391,39.716,48.199,40.908,46.729,40.91 M17.271,40.91c-1.472,0.001-2.666-1.191-2.666-2.664
	c0-1.472,1.193-2.666,2.665-2.666c1.472,0,2.666,1.193,2.666,2.664C19.935,39.716,18.743,40.908,17.271,40.91 M47.684,24.858
	l5.326-9.225c0.307-0.53,0.125-1.208-0.405-1.514c-0.529-0.307-1.207-0.126-1.514,0.404l0,0l-5.393,9.341
	c-4.125-1.882-8.757-2.931-13.699-2.931c-4.942,0-9.574,1.05-13.698,2.931l-5.393-9.341c-0.306-0.53-0.984-0.711-1.514-0.406
	c-0.529,0.306-0.711,0.984-0.406,1.514l0,0l5.327,9.226C7.17,29.832,0.915,39.091,0,50.03h64
	C63.084,39.091,56.829,29.832,47.684,24.858"/>
</svg>
